<svg xmlns="http://www.w3.org/2000/svg" version="1.1" xmlns:xlink="http://www.w3.org/1999/xlink" xmlns:svgjs="http://svgjs.dev/svgjs" width="1000" height="750" viewBox="0 0 1000 750"><rect width="1000" height="750" fill="#000000"></rect><g transform="matrix(0.5770750988142292,0,0,0.5770750988142292,211.9725520343826,83.23643724696356)"><svg viewBox="0 0 244 247" data-background-color="#010536" preserveAspectRatio="xMidYMid meet" height="1012" width="1000" xmlns="http://www.w3.org/2000/svg" xmlns:xlink="http://www.w3.org/1999/xlink"><g id="tight-bounds" transform="matrix(1,0,0,1,-0.2156815523279363,-0.09999999999999432)"><svg viewBox="0 0 244.43135999999998 247.2" height="247.2" width="244.43135999999998"><g><svg></svg></g><g><svg viewBox="0 0 244.43135999999998 247.2" height="247.2" width="244.43135999999998"><g transform="matrix(1,0,0,1,0,68.93527298557159)"><svg viewBox="0 0 244.43135999999998 109.32945402885682" height="109.32945402885682" width="244.43135999999998"><g><svg viewBox="0 0 244.43135999999998 109.32945402885682" height="109.32945402885682" width="244.43135999999998"><g><svg viewBox="0 0 244.43136 109.32945402885683" height="109.32945402885682" width="244.43135999999998"><g><svg viewBox="0 0 244.43136 109.32945402885683" height="109.32945402885683" width="244.43136"><g id="textblocktransform"><svg viewBox="0 0 244.43136 109.32945402885683" height="109.32945402885683" width="244.43136" id="textblock"><g><svg viewBox="0 0 244.43136 109.32945402885683" height="109.32945402885683" width="244.43136"><g transform="matrix(1,0,0,1,0,0)"><svg width="244.43136" viewBox="4.050000190734863 -40 90.0999984741211 40.29999923706055" height="109.32945402885683" data-palette-color="#fbfbf8"><path d="M9.95-34.65L9.95-2.1Q9.95 0.3 7 0.3L7 0.3Q4.05 0.3 4.05-2.1L4.05-2.1 4.05-36.7Q4.05-37.85 4.7-38.78 5.35-39.7 7.2-39.7L7.2-39.7 24.2-39.7Q26-39.7 26.1-37.2L26.1-37.2Q26.2-34.65 24.2-34.65L24.2-34.65 9.95-34.65ZM22.75-20.65L22.75-20.65Q22.75-19.8 22.43-19.03 22.1-18.25 21.53-17.7 20.95-17.15 20.2-16.82 19.45-16.5 18.55-16.5L18.55-16.5Q16.85-16.5 15.65-17.7 14.45-18.9 14.45-20.65L14.45-20.65Q14.45-22.4 15.65-23.6 16.85-24.8 18.55-24.8L18.55-24.8Q19.45-24.8 20.2-24.48 20.95-24.15 21.53-23.58 22.1-23 22.43-22.25 22.75-21.5 22.75-20.65ZM52.1-8.4L52.1-18.05Q52.1-20.5 55.1-20.5L55.1-20.5Q58.05-20.5 58.05-18.15L58.05-18.15 58.05-8Q58.05-3.95 55.35-1.95L55.35-1.95Q54.05-1 52.67-0.48 51.3 0.05 50 0.05L50 0.05 39.6 0.05Q38.3 0.05 36.92-0.48 35.55-1 34.25-1.95L34.25-1.95Q32.95-2.95 32.25-4.42 31.55-5.9 31.55-8L31.55-8 31.55-31.75Q31.55-33.8 32.27-35.3 33-36.8 34.25-37.75L34.25-37.75 34.2-37.75Q35.5-38.6 36.9-39.15 38.3-39.7 39.6-39.7L39.6-39.7 49.5-39.7Q50.8-39.7 52.2-39.15 53.6-38.6 54.9-37.75L54.9-37.75 54.85-37.75Q57.5-35.8 57.5-31.75L57.5-31.75 57.5-28.3Q57.5-25.9 54.55-25.9L54.55-25.9Q51.6-25.9 51.6-28.3L51.6-28.3 51.6-31.3Q51.6-32.55 50.85-33.6 50.1-34.65 48.25-34.65L48.25-34.65 40.9-34.65Q39-34.65 38.25-33.6 37.5-32.55 37.5-31.3L37.5-31.3 37.5-8.4Q37.5-7.75 37.67-7.15 37.85-6.55 38.25-6.08 38.65-5.6 39.3-5.3 39.95-5 40.9-5L40.9-5 48.75-5Q50.6-5 51.35-6.05 52.1-7.1 52.1-8.4L52.1-8.4ZM49.75-18.6L49.75-18.6Q49.75-17.75 49.42-16.98 49.1-16.2 48.52-15.65 47.95-15.1 47.2-14.78 46.45-14.45 45.55-14.45L45.55-14.45Q43.85-14.45 42.65-15.65 41.45-16.85 41.45-18.6L41.45-18.6Q41.45-20.3 42.65-21.5 43.85-22.7 45.55-22.7L45.55-22.7Q46.45-22.7 47.2-22.38 47.95-22.05 48.52-21.5 49.1-20.95 49.42-20.2 49.75-19.45 49.75-18.6ZM71.65-21.2L86.9-39.1Q87.65-40 88.59-40L88.59-40Q89.65-40 90.75-39.05L90.75-39.05Q91.3-38.5 91.67-37.95 92.05-37.4 92.05-36.85L92.05-36.85Q92.05-35.95 91.4-35.3L91.4-35.3 84.7-27.5 71.65-12.15 71.65-2.1Q71.65 0.3 68.65 0.3L68.65 0.3Q65.7 0.3 65.7-2.1L65.7-2.1 65.7-37.55Q65.7-39.95 68.65-39.95L68.65-39.95Q71.65-39.95 71.65-37.55L71.65-37.55 71.65-21.2ZM89.3-1.5L79.8-15.35Q79.3-16.05 79.3-17.05L79.3-17.05Q79.3-18.55 80.55-19.45L80.55-19.45 80.5-19.45Q81.5-20.15 82.5-20.15L82.5-20.15Q83.45-20.15 84.09-19.05L84.09-19.05 93.75-4.95 93.7-5Q94.15-4.3 94.15-3.5L94.15-3.5Q94.15-2.2 92.84-1.2L92.84-1.2 92.9-1.2Q92.34-0.85 91.84-0.65 91.34-0.45 90.95-0.45L90.95-0.45Q90.55-0.45 90.12-0.75 89.7-1.05 89.3-1.5L89.3-1.5Z" opacity="1" transform="matrix(1,0,0,1,0,0)" fill="#ffffff" class="wordmark-text-0" data-fill-palette-color="primary" id="text-0"></path></svg></g></svg></g></svg></g></svg></g><g></g></svg></g></svg></g></svg></g><path d="M0 62.935L0 1 244.431 1 244.431 62.935 234.572 62.935 234.572 10.859 9.859 10.859 9.859 62.935 0 62.935M0 184.265L0 246.2 244.431 246.2 244.431 184.265 234.572 184.265 234.572 236.341 9.859 236.341 9.859 184.265 0 184.265" fill="#ffffff" stroke="transparent" data-fill-palette-color="primary"></path></svg></g><defs></defs></svg><rect width="244.43135999999998" height="247.2" fill="none" stroke="none" visibility="hidden"></rect></g></svg></g></svg>